<?xml version="1.0" encoding="utf-8"?>
<!-- Generator: Adobe Illustrator 16.0.0, SVG Export Plug-In . SVG Version: 6.00 Build 0)  -->
<!DOCTYPE svg PUBLIC "-//W3C//DTD SVG 1.1//EN" "http://www.w3.org/Graphics/SVG/1.1/DTD/svg11.dtd">
<svg version="1.1" id="Layer_1" xmlns="http://www.w3.org/2000/svg" xmlns:xlink="http://www.w3.org/1999/xlink" x="0px" y="0px"
	 width="200px" height="200px" viewBox="0 0 200 200" enable-background="new 0 0 200 200" xml:space="preserve">
<g>
	<path fill="#FFFFFF" d="M62.433,83.828l58.133-58.654c0,0.002,0,0.002,0,0.002l12.393-12.504c8.478-8.553,22.221-8.553,30.697,0
		c8.476,8.553,8.476,22.419,0,30.975L141.728,65.77l-17.898,18.058h8.769L168.04,48.07c10.9-10.999,10.9-28.826,0-39.823
		c-10.898-10.996-28.57-10.996-39.472,0L53.66,83.828H62.433z"/>
	<path fill="#FFFFFF" d="M128.57,56.92c-1.208-1.222-3.172-1.222-4.384,0L97.518,83.828h8.769l22.284-22.484
		C129.782,60.122,129.782,58.141,128.57,56.92z"/>
	<path fill="#FFFFFF" d="M29.631,155.434c-4.717-1.446-9.16-4.046-12.889-7.81c-12.112-12.219-12.112-32.024,0-44.246l76.744-77.432
		h0.003c1.209-1.222,1.209-3.202,0-4.428c-1.213-1.219-3.175-1.219-4.385,0c-0.003,0.002-0.003,0.002-0.003,0.002L12.355,98.954
		c-14.531,14.662-14.531,38.433,0,53.092c4.949,4.994,10.946,8.284,17.276,9.877V155.434z"/>
</g>
<g id="_x37_52-credit-card_x40_2x.png">
	<g>
		<path fill="#FFFFFF" d="M182.643,165.284h-17.356v17.36h17.356V165.284z M58.25,171.071h52.072c1.599,0,2.894-1.295,2.894-2.892
			s-1.295-2.896-2.894-2.896H58.25c-1.598,0-2.893,1.299-2.893,2.896S56.652,171.071,58.25,171.071z M188.429,90.073H49.572
			c-6.39,0-11.571,5.18-11.571,11.569v86.785c0,6.39,5.182,11.572,11.571,11.572h138.856c6.39,0,11.571-5.183,11.571-11.572v-86.785
			C200,95.253,194.818,90.073,188.429,90.073z M194.215,188.428c0,3.196-2.591,5.786-5.786,5.786H49.572
			c-3.195,0-5.785-2.59-5.785-5.786v-57.855h150.427V188.428z M194.215,107.43H43.788v-5.787c0-3.195,2.59-5.786,5.785-5.786
			h138.856c3.195,0,5.786,2.591,5.786,5.786V107.43z M58.25,182.645H87.18c1.598,0,2.893-1.296,2.893-2.896
			c0-1.597-1.295-2.892-2.893-2.892H58.25c-1.598,0-2.893,1.295-2.893,2.892C55.357,181.349,56.652,182.645,58.25,182.645z"/>
	</g>
</g>
</svg>
