<?xml version="1.0" encoding="utf-8"?>
<!-- Generator: Adobe Illustrator 16.0.0, SVG Export Plug-In . SVG Version: 6.00 Build 0)  -->
<!DOCTYPE svg PUBLIC "-//W3C//DTD SVG 1.1//EN" "http://www.w3.org/Graphics/SVG/1.1/DTD/svg11.dtd">
<svg version="1.1" id="Layer_1" xmlns="http://www.w3.org/2000/svg" xmlns:xlink="http://www.w3.org/1999/xlink" x="0px" y="0px"
	 width="200px" height="200px" viewBox="0 0 200 200" enable-background="new 0 0 200 200" xml:space="preserve">
<g>
	<path fill="#FFFFFF" d="M62.433,83.828l58.133-58.654c0,0.002,0,0.002,0,0.002l12.393-12.504c8.478-8.553,22.221-8.553,30.697,0
		c8.476,8.553,8.476,22.419,0,30.975L141.728,65.77l-17.898,18.058h8.769L168.04,48.07c10.9-10.999,10.9-28.826,0-39.823
		c-10.898-10.996-28.57-10.996-39.472,0L53.66,83.828H62.433z"/>
	<path fill="#FFFFFF" d="M128.57,56.92c-1.208-1.222-3.172-1.222-4.384,0L97.518,83.828h8.769l22.284-22.484
		C129.782,60.122,129.782,58.141,128.57,56.92z"/>
	<path fill="#FFFFFF" d="M29.631,155.434c-4.717-1.446-9.16-4.046-12.889-7.81c-12.112-12.219-12.112-32.024,0-44.246l76.744-77.432
		h0.003c1.209-1.222,1.209-3.202,0-4.428c-1.213-1.219-3.175-1.219-4.385,0c-0.003,0.002-0.003,0.002-0.003,0.002L12.355,98.954
		c-14.531,14.662-14.531,38.433,0,53.092c4.949,4.994,10.946,8.284,17.276,9.877V155.434z"/>
</g>
<g id="_x38_27-money-2_x40_2x.png">
	<g>
		<path fill="#FFFFFF" d="M166.078,141.701c7.647,0,13.846-6.199,13.846-13.846c0-7.647-6.198-13.845-13.846-13.845
			s-13.847,6.197-13.847,13.845C152.231,135.502,158.431,141.701,166.078,141.701z M166.078,119.548
			c4.589,0,8.307,3.719,8.307,8.308c0,4.59-3.718,8.309-8.307,8.309c-4.59,0-8.308-3.719-8.308-8.309
			C157.771,123.267,161.488,119.548,166.078,119.548z M60.849,141.701c7.647,0,13.846-6.199,13.846-13.846
			c0-7.647-6.199-13.845-13.846-13.845c-7.648,0-13.846,6.197-13.846,13.845C47.002,135.502,53.201,141.701,60.849,141.701z
			 M60.849,119.548c4.588,0,8.307,3.719,8.307,8.308c0,4.59-3.717,8.309-8.307,8.309c-4.589,0-8.308-3.719-8.308-8.309
			C52.541,123.267,56.26,119.548,60.849,119.548z M35.926,89.086v110.767H191V89.086H35.926z M130.078,109.317
			c5.087,4.562,8.308,11.165,8.308,18.538c0,7.37-3.221,13.975-8.308,18.54V109.317z M96.849,194.314H41.465v-5.537h55.384V194.314z
			 M96.849,183.239H41.465V177.7h55.384V183.239z M96.849,172.162H41.465v-5.538h55.384V172.162z M96.849,146.396
			c-5.087-4.566-8.308-11.169-8.308-18.541s3.221-13.976,8.308-18.537V146.396z M96.849,102.344
			c-8.33,5.438-13.846,14.824-13.846,25.512c0,10.69,5.516,20.076,13.845,25.512v7.718H41.465v-66.46h55.384V102.344z
			 M124.541,194.314h-22.155v-27.689h22.153v27.689H124.541z M124.541,161.085h-22.155v-66.46h22.153v66.46H124.541z
			 M185.462,194.314h-55.384v-5.537h55.384V194.314z M185.462,183.239h-55.384V177.7h55.384V183.239z M185.462,172.162h-55.384
			v-5.538h55.384V172.162z M185.462,161.085h-55.384v-7.718c8.33-5.436,13.846-14.821,13.846-25.512
			c0-10.688-5.516-20.074-13.846-25.512v-7.719h55.384V161.085z"/>
	</g>
</g>
</svg>
