<?xml version="1.0" encoding="utf-8"?>
<!-- Generator: Adobe Illustrator 16.0.0, SVG Export Plug-In . SVG Version: 6.00 Build 0)  -->
<!DOCTYPE svg PUBLIC "-//W3C//DTD SVG 1.1//EN" "http://www.w3.org/Graphics/SVG/1.1/DTD/svg11.dtd">
<svg version="1.1" id="Layer_1" xmlns="http://www.w3.org/2000/svg" xmlns:xlink="http://www.w3.org/1999/xlink" x="0px" y="0px"
	 width="200px" height="200px" viewBox="0 0 200 200" enable-background="new 0 0 200 200" xml:space="preserve">
<g id="_x37_52-credit-card_x40_2x.png">
	<g>
		<path fill="#FFFFFF" d="M25.478,131.936h63.876c1.959,0,3.549-1.588,3.549-3.549c0-1.958-1.589-3.549-3.549-3.549H25.478
			c-1.96,0-3.549,1.591-3.549,3.549C21.929,130.348,23.518,131.936,25.478,131.936z M178.071,124.838h-21.292v21.292h21.292V124.838
			z M185.169,32.572H14.832c-7.839,0-14.195,6.356-14.195,14.195v106.461c0,7.839,6.356,14.194,14.195,14.194h170.337
			c7.839,0,14.194-6.355,14.194-14.194V46.767C199.363,38.928,193.008,32.572,185.169,32.572z M192.266,153.228
			c0,3.919-3.178,7.098-7.097,7.098H14.832c-3.919,0-7.098-3.179-7.098-7.098V82.253h184.532V153.228z M192.266,53.864H7.734v-7.098
			c0-3.919,3.178-7.097,7.098-7.097h170.337c3.919,0,7.097,3.178,7.097,7.097V53.864z M25.478,146.13h35.487
			c1.96,0,3.549-1.587,3.549-3.549c0-1.961-1.589-3.549-3.549-3.549H25.478c-1.96,0-3.549,1.588-3.549,3.549
			C21.929,144.543,23.518,146.13,25.478,146.13z"/>
	</g>
</g>
</svg>
