<?xml version="1.0" encoding="utf-8"?>
<!-- Generator: Adobe Illustrator 16.0.0, SVG Export Plug-In . SVG Version: 6.00 Build 0)  -->
<!DOCTYPE svg PUBLIC "-//W3C//DTD SVG 1.1//EN" "http://www.w3.org/Graphics/SVG/1.1/DTD/svg11.dtd">
<svg version="1.1" id="Layer_1" xmlns="http://www.w3.org/2000/svg" xmlns:xlink="http://www.w3.org/1999/xlink" x="0px" y="0px"
	 width="200px" height="200px" viewBox="0 0 200 200" enable-background="new 0 0 200 200" xml:space="preserve">
<g id="_x38_27-money-2_x40_2x.png">
	<g>
		<path fill="#FFFFFF" d="M0.995,29.279v141.436h198.01V29.279H0.995z M121.215,55.111c6.496,5.825,10.608,14.257,10.608,23.67
			s-4.112,17.845-10.608,23.674V55.111z M78.785,163.643H8.067v-7.071h70.718V163.643z M78.785,149.5H8.067v-7.072h70.718V149.5z
			 M78.785,135.355H8.067v-7.071h70.718V135.355z M78.785,102.456c-6.495-5.829-10.608-14.261-10.608-23.674
			s4.113-17.845,10.608-23.67V102.456z M78.785,46.206C68.149,53.15,61.105,65.135,61.105,78.782
			c0,13.65,7.044,25.635,17.679,32.576v9.855H8.067V36.351h70.718V46.206z M114.144,163.643H85.856v-35.358h28.287V163.643z
			 M114.144,121.213H85.856V36.351h28.287V121.213z M191.934,163.643h-70.719v-7.071h70.719V163.643z M191.934,149.5h-70.719v-7.072
			h70.719V149.5z M191.934,135.355h-70.719v-7.071h70.719V135.355z M191.934,121.213h-70.719v-9.855
			c10.636-6.94,17.68-18.926,17.68-32.576c0-13.646-7.044-25.632-17.68-32.576v-9.855h70.719V121.213z M167.182,96.461
			c9.766,0,17.68-7.914,17.68-17.679s-7.914-17.679-17.68-17.679c-9.765,0-17.68,7.914-17.68,17.679S157.417,96.461,167.182,96.461z
			 M167.182,68.174c5.86,0,10.607,4.748,10.607,10.608s-4.747,10.608-10.607,10.608c-5.859,0-10.607-4.748-10.607-10.608
			S161.322,68.174,167.182,68.174z M32.818,96.461c9.765,0,17.679-7.914,17.679-17.679s-7.915-17.679-17.679-17.679
			c-9.766,0-17.68,7.914-17.68,17.679S23.053,96.461,32.818,96.461z M32.818,68.174c5.859,0,10.607,4.748,10.607,10.608
			S38.678,89.39,32.818,89.39c-5.86,0-10.608-4.748-10.608-10.608S26.958,68.174,32.818,68.174z"/>
	</g>
</g>
</svg>
